#!OML:ASF H:\IndianDance\Patient Classification 1\Patient 1\Session 1\dancer.ASF
:FULLY-SPECIFIED
:DEGREES
1374
root 8.86014 14.7429 12.6967 -173.641 8.4173 -174.331
lowerback 7.01241 0.260439 -0.59974
upperback -6.73922 0.517666 -0.207448
thorax -11.1768 0.395133 0.00613891
lowerneck -19.1014 0.472609 1.73764
upperneck 19.8769 0.56829 -0.805361
head 9.43584 0.402907 -0.473035
rclavicle -3.97569e-015 0
rhumerus -0.0147963 55.1182 -24.0838
rradius 109.857
rwrist -29.7564
rhand -4.55358 14.8589
rfingers 7.12502
rthumb 21.2223 346.001
lclavicle -3.97569e-015 0
lhumerus 14.0183 -50.1091 4.25993
lradius 119.971
lwrist 28.8473
lhand 6.49998 5.55324
lfingers 7.12502
lthumb 31.7996 -327.201
rfemur -389.001 -19.1475 380.739
rtibia 47.8231
rfoot -19.5712 0.698121
rtoes -9.84189
lfemur -30.028 26.9203 5.39317
ltibia 80.3186
lfoot -14.7055 2.08643
ltoes -0.126445
1375
root 8.95977 14.746 12.6877 -173.648 7.93361 -174.17
lowerback 7.08936 0.335595 -0.442925
upperback -6.73807 0.645296 -0.128326
thorax -11.2224 0.447493 -0.0186059
lowerneck -19.0531 1.03016 2.10912
upperneck 19.7409 1.18876 -0.618227
head 9.39001 0.740977 -0.385583
rclavicle -1.09332e-015 1.98785e-014
rhumerus -0.853056 54.5507 -23.7805
rradius 109.852
rwrist -29.3152
rhand -5.51531 15.679
rfingers 7.12502
rthumb 20.2982 346.72
lclavicle -1.09332e-015 1.98785e-014
lhumerus 13.7459 -48.9087 3.99063
lradius 118.808
lwrist 29.6066
lhand 6.82038 6.08904
lfingers 7.12502
lthumb 32.1047 -326.726
rfemur -388.873 -19.3772 381.315
rtibia 47.9616
rfoot -19.8302 0.398887
rtoes -9.22682
lfemur -31.7137 28.5396 4.90291
ltibia 83.4991
lfoot -15.322 2.16142
ltoes 1.03255
1376
root 9.05686 14.7471 12.6776 -173.704 7.43972 -173.982
lowerback 7.19918 0.419616 -0.262624
upperback -6.7331 0.787651 -0.0467154
thorax -11.2831 0.504716 -0.0568821
lowerneck -18.9559 1.59338 2.49436
upperneck 19.6069 1.81284 -0.409943
head 9.33737 1.08489 -0.293375
rclavicle 3.91606e-014 1.03368e-014
rhumerus -1.89538 53.8606 -23.4786
rradius 109.506
rwrist -29.0348
rhand -6.61627 16.4052
rfingers 7.12502
rthumb 19.2398 347.337
lclavicle 3.91606e-014 1.03368e-014
lhumerus 13.4791 -47.7012 3.63879
lradius 117.376
lwrist 30.2964
lhand 6.93793 6.65756
lfingers 7.12502
lthumb 32.2166 -326.18
rfemur -388.673 -19.6063 381.886
rtibia 48.0758
rfoot -20.1081 0.100685
rtoes -8.65291
lfemur -33.2943 30.1643 4.39947
ltibia 86.523
lfoot -15.9534 2.24779
ltoes 1.98298
1377
root 9.15176 14.7461 12.6662 -173.802 6.93709 -173.765
lowerback 7.33429 0.506673 -0.06387
upperback -6.7277 0.937412 0.0404292
thorax -11.3583 0.564007 -0.10152
lowerneck -18.8171 2.16913 2.92004
upperneck 19.4937 2.45059 -0.208134
head 9.28669 1.4386 -0.209102
rclavicle -1.18277e-014 -3.02153e-014
rhumerus -3.06578 53.0925 -23.1378
rradius 108.815
rwrist -28.9008
rhand -7.85338 16.997
rfingers 7.12502
rthumb 18.0499 347.815
lclavicle -1.18277e-014 -3.02153e-014
lhumerus 13.2116 -46.5216 3.20904
lradius 115.666
lwrist 30.816
lhand 6.84662 7.18445
lfingers 7.12502
lthumb 32.1297 -325.636
rfemur -388.406 -19.8383 382.456
rtibia 48.1672
rfoot -20.4036 -0.190842
rtoes -8.12068
lfemur -34.7643 31.7858 3.89877
ltibia 89.3587
lfoot -16.5974 2.3182
ltoes 2.60717
1378
root 9.24443 14.7437 12.6532 -173.935 6.4272 -173.536
lowerback 7.47992 0.599748 0.141383
upperback -6.72237 1.0975 0.130691
thorax -11.4396 0.627745 -0.148866
lowerneck -18.6503 2.74987 3.36169
upperneck 19.4073 3.0975 -0.00623186
head 9.24242 1.79887 -0.126952
rclavicle 7.35503e-015 1.11319e-014
rhumerus -4.32006 52.2747 -22.7268
rradius 107.782
rwrist -28.8881
rhand -9.17829 17.4141
rfingers 7.12502
rthumb 16.7748 348.119
lclavicle 7.35503e-015 1.11319e-014
lhumerus 12.9723 -45.3996 2.72497
lradius 113.659
lwrist 31.0768
lhand 6.56146 7.68809
lfingers 7.12502
lthumb 31.8582 -325.078
rfemur -388.088 -20.0765 383.009
rtibia 48.2396
rfoot -20.7141 -0.470065
rtoes -7.6028
lfemur -36.1305 33.3735 3.37893
ltibia 91.9751
lfoot -17.2609 2.36847
ltoes 3.02131
1379
root 9.33539 14.7401 12.6387 -174.092 5.91165 -173.307
lowerback 7.62626 0.697025 0.331792
upperback -6.71765 1.26356 0.228819
thorax -11.522 0.695947 -0.181009
lowerneck -18.4757 3.33711 3.82566
upperneck 19.3637 3.75845 0.175523
head 9.21459 2.16631 -0.0536618
rclavicle 1.2424e-014 -4.77083e-015
rhumerus -5.61496 51.4346 -22.2356
rradius 106.415
rwrist -28.9493
rhand -10.5088 17.6345
rfingers 7.12502
rthumb 15.4936 348.235
lclavicle 1.2424e-014 -4.77083e-015
lhumerus 12.7543 -44.356 2.20364
lradius 111.371
lwrist 31.046
lhand 6.07455 8.05418
lfingers 7.12502
lthumb 31.3944 -324.62
rfemur -387.738 -20.3214 383.543
rtibia 48.3029
rfoot -21.0301 -0.730963
rtoes -7.10451
lfemur -37.4007 34.9011 2.83768
ltibia 94.3504
lfoot -17.9509 2.38006
ltoes 3.43164
